<svg xmlns="http://www.w3.org/2000/svg" id="canvas" viewBox="300.437 369.406 1380.999 299.000"><path d="M 351.69,427.58 C 350.51 426.28, 348.67 425.61, 345.94 425.35 C 343.21 425.09, 341.47 425.57, 338.05 426.30 C 334.63 427.02, 332.43 427.47, 328.84 428.98 C 325.25 430.48, 323.11 431.38, 320.09 433.84 C 317.06 436.31, 315.45 437.98, 313.71 441.30 C 311.97 444.63, 311.13 446.68, 311.38 450.46 C 311.62 454.23, 312.50 456.22, 314.93 460.19 C 317.35 464.16, 319.48 466.03, 323.50 470.30 C 327.53 474.57, 330.23 476.74, 335.07 481.54 C 339.91 486.35, 343.00 488.90, 347.68 494.33 C 352.37 499.77, 354.90 502.81, 358.48 508.72 C 362.06 514.62, 363.74 517.96, 365.60 523.86 C 367.45 529.77, 367.98 532.83, 367.76 538.24 C 367.54 543.64, 366.75 546.27, 364.52 550.89 C 362.29 555.52, 360.60 557.78, 356.61 561.35 C 352.62 564.92, 349.75 566.47, 344.56 568.74 C 339.37 571.01, 335.86 571.78, 330.64 572.69 C 325.42 573.60, 322.40 573.56, 318.46 573.29 C 314.52 573.01, 312.79 572.40, 310.95 571.31 C 309.12 570.22, 308.80 570.31, 309.27 567.83 C 309.75 565.36, 310.32 563.31, 313.33 558.94 C 316.35 554.56, 318.88 551.60, 324.35 545.95 C 329.82 540.30, 333.52 536.88, 340.68 530.68 C 347.84 524.48, 352.22 521.16, 360.15 514.96 C 368.08 508.77, 372.50 505.37, 380.34 499.71 C 388.19 494.05, 392.35 491.24, 399.37 486.65 C 406.38 482.07, 409.77 480.02, 415.40 476.80 C 421.04 473.57, 423.78 472.17, 427.55 470.52 C 431.31 468.87, 432.60 468.65, 434.24 468.56 C 435.89 468.47, 435.31 468.38, 435.76 470.05 C 436.21 471.73, 436.34 472.93, 436.49 476.92 C 436.64 480.90, 436.49 483.92, 436.53 489.99 C 436.57 496.05, 436.46 500.16, 436.70 507.24 C 436.95 514.33, 436.89 518.57, 437.74 525.40 C 438.59 532.24, 438.90 535.97, 440.94 541.41 C 442.97 546.85, 444.36 549.75, 447.90 552.60 C 451.44 555.45, 454.17 556.22, 458.64 555.66 C 463.11 555.10, 465.58 553.52, 470.26 549.79 C 474.95 546.06, 477.43 543.10, 482.08 536.99 C 486.72 530.88, 489.09 526.55, 493.49 519.24 C 497.88 511.93, 500.14 507.49, 504.05 500.44 C 507.97 493.39, 509.94 489.51, 513.08 483.99 C 516.21 478.47, 517.98 476.00, 519.71 472.84 C 521.43 469.69, 521.59 468.68, 521.68 468.21 C 521.77 467.74, 520.23 468.25, 520.16 470.49 C 520.09 472.72, 520.60 474.79, 521.32 479.38 C 522.05 483.97, 522.71 487.55, 523.76 493.43 C 524.81 499.32, 525.45 502.97, 526.56 508.80 C 527.67 514.64, 527.90 517.83, 529.30 522.62 C 530.70 527.41, 531.10 530.04, 533.57 532.75 C 536.03 535.46, 538.46 536.39, 541.63 536.17 C 544.80 535.95, 546.67 534.76, 549.43 531.64 C 552.18 528.53, 553.00 525.68, 555.42 520.60 C 557.83 515.52, 559.10 512.08, 561.49 506.25 C 563.87 500.41, 565.09 496.47, 567.33 491.43 C 569.57 486.39, 571.25 483.90, 572.68 481.03 C 574.11 478.17, 574.21 477.14, 574.48 477.09 C 574.75 477.04, 573.81 477.87, 574.03 480.80 C 574.25 483.73, 574.91 486.59, 575.57 491.74 C 576.24 496.89, 576.62 500.77, 577.35 506.55 C 578.08 512.32, 578.19 515.70, 579.23 520.61 C 580.26 525.51, 580.33 528.20, 582.52 531.06 C 584.72 533.92, 587.05 534.98, 590.20 534.91 C 593.35 534.84, 594.92 533.65, 598.28 530.72 C 601.63 527.79, 603.42 525.19, 606.97 520.26 C 610.52 515.32, 612.59 511.59, 616.03 506.04 C 619.47 500.49, 621.43 496.79, 624.18 492.49 C 626.93 488.19, 628.86 486.42, 629.77 484.56 C 630.69 482.69, 629.11 481.92, 628.76 483.15 C 628.41 484.39, 628.16 486.48, 628.02 490.74 C 627.89 495.00, 627.86 498.71, 628.09 504.47 C 628.32 510.22, 628.34 513.96, 629.18 519.52 C 630.02 525.08, 630.46 528.07, 632.31 532.26 C 634.15 536.46, 635.24 538.82, 638.39 540.51 C 641.53 542.20, 644.20 542.20, 648.04 540.72 C 651.87 539.25, 653.75 537.41, 657.55 533.13 C 661.35 528.85, 663.33 525.72, 667.04 519.30 C 670.75 512.89, 672.58 508.45, 676.10 501.06 C 679.62 493.67, 681.51 489.27, 684.65 482.34 C 687.79 475.41, 689.38 471.62, 691.79 466.42 C 694.19 461.23, 695.98 459.10, 696.68 456.37 C 697.38 453.64, 695.94 452.39, 695.29 452.79 C 694.65 453.18, 693.80 454.33, 693.47 458.36 C 693.14 462.39, 693.49 465.54, 693.64 472.94 C 693.80 480.34, 693.96 485.02, 694.25 495.37 C 694.53 505.73, 694.64 512.22, 695.08 524.72 C 695.51 537.23, 695.98 544.24, 696.43 557.90 C 696.87 571.57, 696.95 579.54, 697.32 593.06 C 697.70 606.57, 698.01 614.14, 698.31 625.49 C 698.61 636.85, 698.88 642.38, 698.83 649.83 C 698.78 657.28, 697.64 660.16, 698.04 662.74 C 698.45 665.31, 700.62 665.23, 700.84 662.71 C 701.06 660.19, 699.97 657.28, 699.14 650.15 C 698.32 643.02, 697.43 637.54, 696.72 627.06 C 696.01 616.57, 695.64 609.96, 695.60 597.73 C 695.56 585.50, 695.44 578.49, 696.54 565.91 C 697.64 553.33, 698.52 546.73, 701.10 534.84 C 703.68 522.95, 705.51 516.83, 709.45 506.48 C 713.39 496.13, 715.92 491.06, 720.81 483.09 C 725.70 475.12, 728.75 471.58, 733.89 466.63 C 739.04 461.68, 741.94 460.00, 746.53 458.33 C 751.12 456.67, 753.25 456.87, 756.84 458.29 C 760.42 459.71, 762.10 461.24, 764.44 465.43 C 766.78 469.62, 767.85 472.94, 768.55 479.23 C 769.24 485.53, 769.17 489.66, 767.91 496.91 C 766.64 504.16, 765.32 508.78, 762.22 515.47 C 759.12 522.15, 756.61 525.74, 752.41 530.32 C 748.22 534.90, 745.21 536.91, 741.26 538.36 C 737.31 539.82, 735.51 538.91, 732.67 537.59 C 729.83 536.27, 729.01 534.22, 727.06 531.77 C 725.10 529.31, 724.49 526.25, 722.90 525.33 C 721.31 524.40, 719.27 525.10, 719.11 527.15 C 718.95 529.20, 719.79 532.46, 722.10 535.57 C 724.41 538.68, 726.52 541.27, 730.67 542.69 C 734.83 544.10, 737.93 544.58, 742.89 542.66 C 747.85 540.74, 750.89 538.19, 755.46 533.07 C 760.03 527.96, 762.46 524.19, 765.74 517.10 C 769.02 510.00, 770.43 505.29, 771.85 497.62 C 773.28 489.96, 773.56 485.67, 772.87 478.78 C 772.19 471.88, 771.32 468.06, 768.42 463.14 C 765.52 458.22, 763.04 455.85, 758.39 454.17 C 753.74 452.48, 750.53 452.69, 745.18 454.72 C 739.83 456.76, 736.98 458.95, 731.64 464.35 C 726.31 469.75, 723.39 473.45, 718.50 481.70 C 713.62 489.96, 711.14 495.11, 707.22 505.64 C 703.30 516.17, 701.49 522.35, 698.89 534.36 C 696.30 546.37, 695.43 553.03, 694.25 565.70 C 693.07 578.37, 693.18 585.40, 693.00 597.71 C 692.81 610.02, 692.93 616.66, 693.32 627.24 C 693.72 637.81, 694.27 643.31, 694.97 650.59 C 695.66 657.87, 695.43 661.12, 696.81 663.64 C 698.19 666.16, 700.82 665.96, 701.86 663.19 C 702.89 660.42, 702.21 657.35, 701.99 649.80 C 701.76 642.24, 701.23 636.77, 700.73 625.41 C 700.24 614.05, 699.92 606.51, 699.50 592.99 C 699.08 579.48, 699.01 571.50, 698.63 557.84 C 698.24 544.17, 697.81 537.15, 697.57 524.66 C 697.33 512.16, 697.33 505.68, 697.43 495.35 C 697.53 485.01, 697.70 480.39, 698.07 473.00 C 698.44 465.62, 699.54 462.66, 699.28 458.41 C 699.02 454.16, 698.32 452.66, 696.77 451.76 C 695.22 450.85, 693.38 451.32, 691.53 453.90 C 689.69 456.47, 689.64 459.24, 687.54 464.61 C 685.45 469.99, 684.06 473.81, 681.06 480.76 C 678.06 487.70, 676.13 492.10, 672.56 499.34 C 668.98 506.59, 666.98 510.96, 663.19 516.99 C 659.40 523.01, 657.12 525.87, 653.61 529.49 C 650.11 533.10, 648.11 533.92, 645.67 535.06 C 643.24 536.21, 643.01 536.22, 641.44 535.20 C 639.88 534.18, 639.13 533.25, 637.83 529.95 C 636.54 526.65, 635.62 523.84, 634.97 518.71 C 634.31 513.58, 634.59 509.94, 634.55 504.31 C 634.50 498.68, 635.14 495.10, 634.74 490.54 C 634.34 485.97, 634.30 483.49, 632.54 481.50 C 630.78 479.51, 628.58 479.02, 625.94 480.60 C 623.30 482.19, 622.24 484.88, 619.35 489.41 C 616.46 493.93, 614.90 497.75, 611.50 503.24 C 608.10 508.72, 605.87 512.26, 602.35 516.82 C 598.83 521.38, 596.41 523.46, 593.89 526.03 C 591.36 528.61, 590.91 529.38, 589.74 529.69 C 588.57 530.00, 588.96 529.64, 588.04 527.57 C 587.11 525.51, 586.06 523.70, 585.12 519.35 C 584.19 515.00, 583.98 511.51, 583.36 505.84 C 582.75 500.16, 582.60 496.33, 582.04 490.98 C 581.48 485.63, 582.00 482.54, 580.54 479.09 C 579.09 475.63, 577.35 473.99, 574.75 473.71 C 572.15 473.43, 570.04 474.56, 567.55 477.67 C 565.06 480.79, 564.51 483.97, 562.30 489.27 C 560.09 494.57, 558.95 498.43, 556.50 504.16 C 554.05 509.89, 552.51 513.25, 550.04 517.90 C 547.57 522.56, 545.96 524.84, 544.15 527.43 C 542.35 530.01, 542.13 530.58, 541.03 530.84 C 539.93 531.10, 539.91 530.69, 538.64 528.71 C 537.38 526.73, 536.08 525.12, 534.71 520.95 C 533.35 516.77, 532.84 513.52, 531.82 507.83 C 530.81 502.15, 530.38 498.43, 529.65 492.54 C 528.92 486.65, 528.81 483.16, 528.16 478.38 C 527.52 473.61, 527.89 471.26, 526.42 468.67 C 524.95 466.08, 523.06 465.16, 520.80 465.43 C 518.55 465.71, 517.44 466.71, 515.15 470.02 C 512.87 473.34, 512.25 476.29, 509.38 482.02 C 506.51 487.75, 504.64 491.61, 500.82 498.66 C 497.00 505.72, 494.70 510.15, 490.29 517.30 C 485.88 524.44, 483.36 528.66, 478.76 534.41 C 474.17 540.16, 471.49 542.81, 467.32 546.04 C 463.15 549.28, 461.16 550.04, 457.92 550.57 C 454.68 551.10, 453.64 550.86, 451.12 548.70 C 448.59 546.54, 447.11 544.54, 445.31 539.77 C 443.51 535.00, 442.92 531.39, 442.12 524.87 C 441.33 518.34, 441.38 514.10, 441.35 507.15 C 441.32 500.20, 441.66 496.21, 441.99 490.12 C 442.31 484.02, 443.15 481.22, 442.98 476.67 C 442.81 472.13, 442.86 470.06, 441.15 467.38 C 439.43 464.70, 437.55 463.52, 434.42 463.27 C 431.29 463.02, 429.68 464.05, 425.49 466.11 C 421.30 468.18, 419.03 470.00, 413.45 473.59 C 407.88 477.17, 404.58 479.27, 397.61 484.03 C 390.65 488.78, 386.48 491.63, 378.63 497.35 C 370.77 503.07, 366.36 506.46, 358.34 512.62 C 350.32 518.78, 345.91 522.06, 338.54 528.15 C 331.17 534.24, 327.35 537.50, 321.50 543.07 C 315.65 548.65, 312.88 551.22, 309.28 556.02 C 305.68 560.82, 303.88 563.03, 303.50 567.07 C 303.12 571.11, 304.46 573.84, 307.37 576.21 C 310.29 578.59, 313.25 578.67, 318.09 578.96 C 322.93 579.25, 325.91 578.85, 331.60 577.68 C 337.28 576.50, 340.88 575.66, 346.50 573.08 C 352.13 570.49, 355.29 568.81, 359.70 564.76 C 364.11 560.70, 366.09 558.08, 368.55 552.81 C 371.02 547.53, 371.84 544.42, 372.03 538.39 C 372.21 532.35, 371.49 528.98, 369.46 522.64 C 367.43 516.29, 365.60 512.86, 361.87 506.67 C 358.13 500.48, 355.51 497.35, 350.80 491.69 C 346.10 486.03, 343.00 483.36, 338.34 478.37 C 333.68 473.38, 331.08 471.01, 327.50 466.74 C 323.92 462.47, 322.19 460.33, 320.43 457.03 C 318.68 453.72, 318.68 452.57, 318.73 450.22 C 318.78 447.88, 319.39 447.26, 320.68 445.29 C 321.96 443.32, 322.91 442.00, 325.16 440.36 C 327.41 438.72, 328.98 438.06, 331.92 437.09 C 334.87 436.11, 336.89 436.02, 339.86 435.49 C 342.84 434.95, 344.39 435.15, 346.78 434.42 C 349.17 433.69, 350.84 433.20, 351.83 431.83 C 352.81 430.47, 352.86 428.88, 351.69 427.58" style="stroke: black; fill: black;"/><path d="M 793.19,383.64 C 792.44 384.74, 792.54 385.22, 792.68 388.51 C 792.81 391.80, 793.53 393.53, 793.86 400.09 C 794.19 406.64, 794.31 411.32, 794.33 421.28 C 794.36 431.24, 794.09 437.85, 793.98 449.90 C 793.88 461.95, 793.59 469.22, 793.79 481.54 C 794.00 493.85, 794.01 500.93, 795.02 511.47 C 796.03 522.00, 796.46 527.12, 798.84 534.21 C 801.21 541.30, 802.75 544.27, 806.89 546.92 C 811.04 549.58, 814.14 549.64, 819.55 547.47 C 824.97 545.30, 828.06 542.48, 833.97 536.08 C 839.89 529.68, 843.32 524.75, 849.14 515.47 C 854.95 506.20, 858.22 500.04, 863.06 489.70 C 867.91 479.35, 870.34 473.22, 873.34 463.74 C 876.34 454.26, 877.49 449.47, 878.06 442.29 C 878.63 435.12, 878.53 431.72, 876.19 427.87 C 873.86 424.03, 870.82 422.42, 866.38 423.06 C 861.94 423.70, 858.70 425.93, 854.01 431.08 C 849.32 436.23, 846.57 440.47, 842.92 448.81 C 839.28 457.15, 837.43 462.87, 835.80 472.80 C 834.18 482.73, 833.76 488.94, 834.79 498.46 C 835.82 507.99, 837.00 513.26, 840.96 520.43 C 844.92 527.61, 848.12 530.61, 854.58 534.35 C 861.04 538.10, 865.30 539.01, 873.28 539.16 C 881.26 539.30, 885.86 538.27, 894.48 535.06 C 903.10 531.86, 908.53 528.15, 916.39 523.13 C 924.24 518.10, 928.09 514.60, 933.75 509.94 C 939.41 505.28, 942.96 502.33, 944.70 499.82 C 946.45 497.31, 945.07 495.88, 942.46 497.40 C 939.85 498.91, 937.24 502.83, 931.67 507.41 C 926.09 512.00, 922.25 515.39, 914.58 520.31 C 906.92 525.24, 901.60 528.92, 893.35 532.05 C 885.10 535.18, 880.76 536.05, 873.32 535.96 C 865.89 535.86, 862.10 535.00, 856.17 531.60 C 850.24 528.20, 847.33 525.64, 843.66 518.95 C 839.98 512.26, 838.75 507.27, 837.80 498.14 C 836.86 489.02, 837.24 482.90, 838.94 473.33 C 840.63 463.76, 842.62 458.19, 846.26 450.30 C 849.89 442.42, 852.91 438.49, 857.10 433.90 C 861.29 429.30, 864.07 428.15, 867.20 427.33 C 870.33 426.52, 871.24 426.88, 872.74 429.83 C 874.25 432.77, 875.15 435.44, 874.73 442.05 C 874.30 448.67, 873.44 453.60, 870.60 462.89 C 867.77 472.18, 865.36 478.33, 860.56 488.52 C 855.75 498.71, 852.40 504.81, 846.57 513.85 C 840.75 522.89, 837.13 527.67, 831.44 533.72 C 825.75 539.76, 822.63 542.01, 818.11 544.06 C 813.58 546.11, 812.09 546.13, 808.82 543.96 C 805.55 541.80, 803.99 539.78, 801.76 533.22 C 799.52 526.67, 798.75 521.55, 797.66 511.20 C 796.57 500.86, 796.49 493.75, 796.30 481.50 C 796.11 469.24, 796.42 461.97, 796.71 449.94 C 797.00 437.91, 797.38 431.32, 797.75 421.34 C 798.11 411.36, 798.31 406.72, 798.54 400.05 C 798.77 393.38, 799.31 391.41, 798.89 388.00 C 798.47 384.59, 797.58 383.87, 796.44 383.00 C 795.30 382.13, 793.94 382.53, 793.19 383.64" style="stroke: black; fill: black;"/><path d="M 947.60,483.18 C 948.41 484.45, 949.21 485.82, 952.48 486.29 C 955.75 486.75, 958.25 486.17, 963.96 485.49 C 969.67 484.81, 973.67 484.22, 981.02 482.88 C 988.37 481.53, 992.98 480.76, 1000.72 478.78 C 1008.46 476.80, 1012.96 474.93, 1019.74 472.96 C 1026.51 470.99, 1031.80 470.44, 1034.58 468.93 C 1037.36 467.42, 1036.80 465.31, 1033.63 465.40 C 1030.46 465.49, 1025.49 467.49, 1018.72 469.38 C 1011.94 471.27, 1007.44 473.07, 999.76 474.86 C 992.08 476.64, 987.55 477.34, 980.30 478.31 C 973.05 479.28, 968.98 479.51, 963.51 479.69 C 958.04 479.86, 955.97 479.14, 952.95 479.19 C 949.93 479.23, 949.49 479.11, 948.42 479.91 C 947.35 480.71, 946.78 481.90, 947.60 483.18" style="stroke: black; fill: black;"/><path d="M 1128.74,457.75 C 1128.59 456.43, 1128.07 455.50, 1126.45 454.62 C 1124.83 453.74, 1123.42 452.97, 1120.64 453.35 C 1117.86 453.73, 1115.83 454.19, 1112.54 456.52 C 1109.24 458.85, 1107.45 460.62, 1104.16 465.01 C 1100.88 469.40, 1099.00 472.23, 1096.13 478.48 C 1093.26 484.72, 1091.67 488.82, 1089.80 496.24 C 1087.93 503.67, 1087.17 508.28, 1086.77 515.60 C 1086.37 522.91, 1086.52 526.99, 1087.81 532.83 C 1089.09 538.66, 1090.10 541.74, 1093.19 544.79 C 1096.28 547.84, 1099.10 548.77, 1103.27 548.07 C 1107.45 547.37, 1109.90 545.52, 1114.07 541.28 C 1118.23 537.05, 1120.31 533.87, 1124.08 526.91 C 1127.86 519.95, 1129.64 515.27, 1132.93 506.48 C 1136.22 497.68, 1137.92 491.95, 1140.53 482.94 C 1143.15 473.93, 1144.36 468.74, 1146.00 461.43 C 1147.64 454.11, 1148.67 450.66, 1148.74 446.37 C 1148.82 442.07, 1147.68 440.23, 1146.38 439.96 C 1145.07 439.69, 1143.07 440.91, 1142.22 445.02 C 1141.37 449.14, 1141.78 453.20, 1142.13 460.54 C 1142.47 467.89, 1142.73 473.05, 1143.94 481.74 C 1145.16 490.44, 1146.02 495.94, 1148.19 504.03 C 1150.36 512.12, 1151.61 516.44, 1154.79 522.20 C 1157.97 527.96, 1159.85 530.66, 1164.09 532.83 C 1168.32 535.00, 1171.27 534.95, 1175.96 533.06 C 1180.65 531.16, 1183.10 528.70, 1187.52 523.35 C 1191.93 518.00, 1194.11 513.92, 1198.04 506.30 C 1201.98 498.67, 1204.12 492.79, 1207.20 485.23 C 1210.28 477.67, 1212.21 473.09, 1213.44 468.50 C 1214.67 463.90, 1213.88 462.25, 1213.35 462.25 C 1212.83 462.25, 1211.41 463.77, 1210.82 468.51 C 1210.23 473.24, 1210.16 478.19, 1210.41 485.90 C 1210.65 493.62, 1210.63 499.37, 1212.03 507.08 C 1213.44 514.79, 1214.40 518.98, 1217.42 524.45 C 1220.44 529.92, 1222.66 532.21, 1227.13 534.44 C 1231.61 536.66, 1234.61 537.04, 1239.80 535.58 C 1244.99 534.11, 1247.90 531.94, 1253.08 527.11 C 1258.25 522.28, 1261.07 518.33, 1265.66 511.42 C 1270.26 504.52, 1272.63 499.34, 1276.05 492.59 C 1279.47 485.85, 1281.27 481.70, 1282.74 477.70 C 1284.21 473.69, 1283.48 472.35, 1283.40 472.58 C 1283.32 472.81, 1282.36 474.33, 1282.35 478.83 C 1282.35 483.33, 1282.44 487.91, 1283.39 495.09 C 1284.34 502.28, 1284.91 507.55, 1287.10 514.76 C 1289.28 521.97, 1290.85 525.85, 1294.33 531.14 C 1297.80 536.43, 1299.91 538.86, 1304.47 541.23 C 1309.03 543.59, 1311.98 544.10, 1317.14 542.96 C 1322.29 541.82, 1325.32 539.98, 1330.26 535.52 C 1335.19 531.06, 1337.62 527.58, 1341.83 520.65 C 1346.04 513.73, 1348.20 508.70, 1351.31 500.89 C 1354.42 493.09, 1355.85 488.43, 1357.37 481.62 C 1358.89 474.81, 1359.43 471.51, 1358.92 466.85 C 1358.41 462.19, 1357.29 460.08, 1354.81 458.34 C 1352.33 456.59, 1349.49 456.90, 1346.54 458.14 C 1343.58 459.37, 1341.44 461.19, 1340.03 464.52 C 1338.62 467.84, 1338.23 470.90, 1339.49 474.76 C 1340.75 478.61, 1342.44 481.01, 1346.34 483.78 C 1350.24 486.55, 1353.16 487.66, 1359.00 488.63 C 1364.83 489.59, 1368.39 489.43, 1375.52 488.60 C 1382.66 487.77, 1386.92 486.67, 1394.66 484.48 C 1402.40 482.30, 1406.81 480.59, 1414.23 477.67 C 1421.65 474.74, 1425.60 472.68, 1431.77 469.85 C 1437.93 467.02, 1441.13 465.74, 1445.06 463.51 C 1448.99 461.28, 1450.64 460.41, 1451.41 458.70 C 1452.18 456.99, 1450.95 455.12, 1448.90 454.97 C 1446.84 454.82, 1444.77 455.58, 1441.13 457.96 C 1437.50 460.34, 1435.15 462.57, 1430.73 466.88 C 1426.30 471.20, 1423.49 473.84, 1419.01 479.53 C 1414.53 485.22, 1411.92 488.79, 1408.33 495.32 C 1404.73 501.85, 1403.07 505.85, 1401.03 512.19 C 1398.99 518.52, 1398.24 521.84, 1398.14 527.00 C 1398.03 532.16, 1398.24 535.03, 1400.51 537.99 C 1402.79 540.94, 1405.59 542.26, 1409.50 541.76 C 1413.40 541.27, 1415.71 539.41, 1420.03 535.50 C 1424.36 531.58, 1426.76 528.50, 1431.13 522.20 C 1435.49 515.90, 1437.93 511.58, 1441.86 504.00 C 1445.79 496.42, 1447.91 491.49, 1450.77 484.29 C 1453.63 477.10, 1454.98 472.95, 1456.16 468.01 C 1457.34 463.07, 1457.45 460.77, 1456.66 459.59 C 1455.87 458.40, 1453.48 458.87, 1452.21 462.10 C 1450.93 465.33, 1450.75 469.11, 1450.30 475.73 C 1449.85 482.35, 1449.47 487.45, 1449.94 495.20 C 1450.42 502.96, 1450.93 507.79, 1452.65 514.51 C 1454.37 521.22, 1455.28 524.67, 1458.55 528.77 C 1461.82 532.86, 1464.35 534.52, 1469.00 535.00 C 1473.64 535.48, 1476.53 534.30, 1481.77 531.15 C 1487.01 528.00, 1489.84 525.08, 1495.21 519.23 C 1500.58 513.38, 1503.75 508.64, 1508.64 501.91 C 1513.53 495.19, 1516.14 490.57, 1519.65 485.61 C 1523.16 480.66, 1525.02 478.53, 1526.20 477.13 C 1527.37 475.74, 1525.68 475.75, 1525.54 478.64 C 1525.40 481.52, 1525.54 485.26, 1525.50 491.56 C 1525.46 497.86, 1524.94 503.08, 1525.35 510.13 C 1525.75 517.19, 1526.41 521.16, 1527.51 526.84 C 1528.61 532.51, 1529.24 535.11, 1530.84 538.53 C 1532.44 541.94, 1533.84 542.81, 1535.51 543.91 C 1537.18 545.00, 1538.36 544.32, 1539.20 543.99 C 1540.05 543.67, 1539.86 542.89, 1539.73 542.26 C 1539.60 541.63, 1539.22 542.09, 1538.56 540.86 C 1537.90 539.62, 1537.64 539.09, 1536.43 536.08 C 1535.22 533.07, 1533.66 531.05, 1532.50 525.80 C 1531.33 520.56, 1530.95 516.70, 1530.60 509.85 C 1530.26 503.00, 1530.80 497.99, 1530.77 491.57 C 1530.74 485.14, 1531.80 481.31, 1530.47 477.73 C 1529.14 474.14, 1527.01 472.60, 1524.11 473.65 C 1521.21 474.70, 1519.73 477.80, 1515.98 482.97 C 1512.22 488.15, 1510.08 492.84, 1505.32 499.52 C 1500.56 506.21, 1497.33 510.85, 1492.16 516.42 C 1486.99 521.98, 1484.02 524.56, 1479.47 527.36 C 1474.92 530.17, 1472.89 530.69, 1469.42 530.43 C 1465.94 530.16, 1464.60 529.43, 1462.10 526.03 C 1459.60 522.64, 1458.38 519.67, 1456.91 513.46 C 1455.45 507.24, 1455.03 502.43, 1454.77 494.97 C 1454.51 487.51, 1455.03 482.54, 1455.60 476.15 C 1456.17 469.76, 1457.78 466.41, 1457.63 463.02 C 1457.47 459.63, 1456.05 458.45, 1454.84 459.19 C 1453.63 459.93, 1453.14 461.98, 1451.58 466.72 C 1450.02 471.45, 1449.67 475.77, 1447.04 482.86 C 1444.41 489.96, 1442.32 494.85, 1438.43 502.20 C 1434.53 509.56, 1431.92 513.76, 1427.56 519.64 C 1423.19 525.52, 1420.41 528.31, 1416.59 531.60 C 1412.77 534.89, 1410.75 535.46, 1408.46 536.08 C 1406.18 536.71, 1406.21 536.54, 1405.15 534.74 C 1404.08 532.93, 1403.12 531.31, 1403.13 527.06 C 1403.14 522.80, 1403.41 519.41, 1405.18 513.47 C 1406.94 507.52, 1408.49 503.54, 1411.95 497.33 C 1415.41 491.11, 1417.94 487.62, 1422.48 482.40 C 1427.02 477.19, 1430.07 474.97, 1434.64 471.27 C 1439.21 467.57, 1442.06 466.38, 1445.32 463.90 C 1448.58 461.42, 1450.11 460.51, 1450.92 458.88 C 1451.73 457.24, 1451.06 455.75, 1449.37 455.73 C 1447.68 455.71, 1446.34 456.71, 1442.46 458.79 C 1438.58 460.87, 1435.87 463.05, 1429.95 466.12 C 1424.02 469.20, 1420.10 471.24, 1412.83 474.17 C 1405.57 477.09, 1401.18 478.73, 1393.63 480.75 C 1386.08 482.76, 1381.82 483.70, 1375.09 484.24 C 1368.37 484.78, 1364.95 484.58, 1360.00 483.45 C 1355.05 482.32, 1352.85 480.74, 1350.35 478.58 C 1347.85 476.42, 1347.85 474.80, 1347.51 472.63 C 1347.17 470.46, 1348.17 469.55, 1348.67 467.71 C 1349.16 465.86, 1349.34 464.55, 1350.00 463.42 C 1350.66 462.28, 1351.17 461.25, 1351.97 462.03 C 1352.78 462.80, 1353.75 463.56, 1354.02 467.31 C 1354.30 471.06, 1354.59 474.34, 1353.33 480.77 C 1352.08 487.21, 1350.72 491.92, 1347.75 499.48 C 1344.77 507.05, 1342.53 512.02, 1338.45 518.58 C 1334.38 525.15, 1331.85 528.33, 1327.38 532.32 C 1322.92 536.31, 1320.29 537.53, 1316.12 538.52 C 1311.96 539.51, 1310.18 539.22, 1306.55 537.27 C 1302.92 535.33, 1300.98 533.55, 1297.97 528.79 C 1294.96 524.03, 1293.41 520.34, 1291.50 513.48 C 1289.60 506.61, 1289.26 501.49, 1288.46 494.47 C 1287.66 487.44, 1288.38 483.04, 1287.51 478.34 C 1286.64 473.65, 1285.92 471.56, 1284.10 471.01 C 1282.28 470.46, 1280.80 471.66, 1278.42 475.60 C 1276.03 479.53, 1275.40 483.96, 1272.17 490.68 C 1268.95 497.40, 1266.69 502.52, 1262.29 509.19 C 1257.89 515.86, 1254.94 519.59, 1250.19 524.02 C 1245.44 528.44, 1242.77 530.01, 1238.55 531.31 C 1234.33 532.61, 1232.58 532.31, 1229.10 530.53 C 1225.62 528.76, 1223.67 527.28, 1221.14 522.44 C 1218.62 517.60, 1217.62 513.66, 1216.45 506.33 C 1215.28 498.99, 1215.46 493.32, 1215.31 485.78 C 1215.16 478.24, 1216.03 473.48, 1215.70 468.64 C 1215.37 463.80, 1214.96 461.92, 1213.65 461.58 C 1212.33 461.24, 1211.19 462.50, 1209.12 466.92 C 1207.06 471.34, 1206.25 476.17, 1203.32 483.68 C 1200.40 491.19, 1198.31 497.07, 1194.50 504.47 C 1190.69 511.86, 1188.31 515.75, 1184.25 520.65 C 1180.19 525.55, 1177.84 527.29, 1174.20 528.97 C 1170.57 530.64, 1169.28 530.76, 1166.08 529.03 C 1162.89 527.30, 1161.10 525.49, 1158.24 520.30 C 1155.38 515.11, 1153.83 510.89, 1151.78 503.08 C 1149.73 495.27, 1148.94 489.77, 1147.97 481.23 C 1147.00 472.70, 1147.02 467.56, 1146.94 460.40 C 1146.86 453.25, 1147.76 449.44, 1147.58 445.47 C 1147.40 441.49, 1146.73 440.45, 1146.04 440.54 C 1145.35 440.63, 1144.89 441.89, 1144.15 445.92 C 1143.41 449.94, 1143.69 453.45, 1142.33 460.67 C 1140.96 467.89, 1139.85 473.11, 1137.32 482.02 C 1134.80 490.94, 1133.04 496.66, 1129.69 505.24 C 1126.34 513.82, 1124.35 518.39, 1120.55 524.93 C 1116.75 531.46, 1114.33 534.29, 1110.67 537.90 C 1107.02 541.51, 1105.04 542.30, 1102.26 542.99 C 1099.48 543.67, 1098.80 543.54, 1096.79 541.31 C 1094.79 539.08, 1093.40 536.93, 1092.23 531.83 C 1091.05 526.73, 1090.58 522.71, 1090.91 515.81 C 1091.24 508.90, 1091.97 504.35, 1093.87 497.31 C 1095.78 490.26, 1097.44 486.26, 1100.42 480.59 C 1103.41 474.92, 1105.51 472.28, 1108.79 468.94 C 1112.07 465.60, 1114.15 465.03, 1116.83 463.89 C 1119.50 462.74, 1120.52 463.52, 1122.15 463.22 C 1123.79 462.92, 1124.01 462.80, 1125.02 462.40 C 1126.03 462.01, 1126.46 462.17, 1127.20 461.24 C 1127.95 460.31, 1128.89 459.08, 1128.74 457.75" style="stroke: black; fill: black;"/><path d="M 1527.09,385.84 C 1526.24 384.67, 1525.19 383.35, 1524.75 383.27 C 1524.32 383.19, 1524.12 383.88, 1524.90 385.45 C 1525.68 387.02, 1527.54 389.77, 1528.64 391.12 C 1529.74 392.48, 1530.32 392.64, 1530.39 392.24 C 1530.46 391.84, 1529.65 390.41, 1528.99 389.13 C 1528.33 387.85, 1527.94 387.01, 1527.09 385.84" style="stroke: black; fill: black;"/><path d="M 1588.79,373.49 C 1588.03 374.81, 1588.45 375.66, 1588.34 379.94 C 1588.23 384.22, 1588.48 386.66, 1588.23 394.89 C 1587.98 403.12, 1587.70 408.78, 1587.10 421.11 C 1586.51 433.43, 1585.98 441.60, 1585.26 456.51 C 1584.54 471.43, 1583.99 480.56, 1583.51 495.67 C 1583.02 510.79, 1582.79 519.84, 1582.83 532.09 C 1582.86 544.34, 1582.78 550.50, 1583.68 556.91 C 1584.58 563.33, 1585.83 564.21, 1587.35 564.18 C 1588.86 564.14, 1590.18 560.76, 1591.25 556.73 C 1592.32 552.71, 1593.75 546.66, 1592.71 544.05 C 1591.67 541.44, 1587.37 541.25, 1586.05 543.68 C 1584.73 546.11, 1585.86 552.29, 1586.11 556.19 C 1586.35 560.10, 1587.17 563.13, 1587.26 563.21 C 1587.36 563.30, 1587.01 562.84, 1586.59 556.61 C 1586.17 550.38, 1585.38 544.24, 1585.18 532.07 C 1584.98 519.90, 1585.12 510.83, 1585.58 495.74 C 1586.04 480.65, 1586.61 471.52, 1587.46 456.63 C 1588.32 441.74, 1588.94 433.58, 1589.84 421.27 C 1590.74 408.97, 1591.27 403.35, 1591.96 395.10 C 1592.65 386.85, 1593.24 384.39, 1593.27 380.03 C 1593.31 375.67, 1593.05 374.62, 1592.15 373.31 C 1591.25 372.00, 1589.55 372.16, 1588.79 373.49" style="stroke: black; fill: black;"/><path d="M 1557.93,478.99 C 1559.05 479.75, 1559.41 479.85, 1562.99 479.66 C 1566.57 479.46, 1569.16 478.65, 1575.85 478.04 C 1582.54 477.42, 1587.31 477.10, 1596.43 476.59 C 1605.55 476.09, 1611.64 475.95, 1621.45 475.52 C 1631.26 475.08, 1636.73 474.76, 1645.47 474.43 C 1654.21 474.10, 1658.88 474.11, 1665.13 473.88 C 1671.39 473.65, 1674.45 474.00, 1676.75 473.27 C 1679.05 472.54, 1678.98 470.80, 1676.64 470.25 C 1674.29 469.70, 1671.28 470.37, 1665.02 470.54 C 1658.77 470.71, 1654.08 470.77, 1645.34 471.11 C 1636.60 471.45, 1631.13 471.91, 1621.32 472.24 C 1611.51 472.58, 1605.43 472.59, 1596.28 472.77 C 1587.13 472.96, 1582.36 473.01, 1575.57 473.17 C 1568.79 473.33, 1566.00 473.02, 1562.37 473.56 C 1558.74 474.11, 1558.30 474.80, 1557.42 475.89 C 1556.53 476.97, 1556.82 478.24, 1557.93 478.99" style="stroke: black; fill: black;"/></svg>